<?xml version="1.0" encoding="UTF-8"?>
<svg version="1.1" xmlns="http://www.w3.org/2000/svg" xmlns:xlink="http://www.w3.org/1999/xlink" viewBox="18.75 46.875 75 18.75">
<path d="M 75 56.25C 75 51.07219 79.19718 46.875 84.375 46.875C 89.55282 46.875 93.75 51.07219 93.75 56.25C 93.75 61.42781 89.55282 65.625 84.375 65.625C 79.19718 65.625 75 61.42781 75 56.25ZM 46.875 56.25C 46.875 51.07219 51.07219 46.875 56.25 46.875C 61.42781 46.875 65.625 51.07219 65.625 56.25C 65.625 61.42781 61.42781 65.625 56.25 65.625C 51.07219 65.625 46.875 61.42781 46.875 56.25ZM 18.75 56.25C 18.75 51.07219 22.94733 46.875 28.125 46.875C 33.30267 46.875 37.5 51.07219 37.5 56.25C 37.5 61.42781 33.30267 65.625 28.125 65.625C 22.94733 65.625 18.75 61.42781 18.75 56.25Z" fill="" />
</svg>
