<?xml version="1.0" encoding="UTF-8"?>
<svg version="1.1" xmlns="http://www.w3.org/2000/svg" xmlns:xlink="http://www.w3.org/1999/xlink" viewBox="3.40909099578857 2.71704552364349 75.0000019073486 72.4431836605072">
<path d="M 78.4091 40.90909L 78.4091 47.72727L 63.43398 47.72727C 66.85909 55.02546 66.69648 74.96148 42.21409 75.05318C 13.82281 75.15989 14.88815 52.89409 14.88815 52.89409L 28.41798 53.0008C 28.52451 64.50648 39.12477 64.50648 41.30864 64.3466C 43.4925 64.18671 51.64228 64.23989 52.28148 56.25C 52.57841 52.53955 48.83216 49.7025 44.73375 47.72727L 3.409091 47.72727L 3.409091 40.90909L 78.4091 40.90909ZM 66.18443 26.89988L 52.60125 26.79334C 52.60125 26.79334 53.18727 17.36506 41.415 17.31181C 29.6431 17.25856 30.60191 24.82244 30.70844 25.78125C 30.81498 26.74006 31.82707 31.42756 40.93568 33.66477L 19.46911 33.66477C 19.46911 33.66477 7.57875 10.72762 36.62114 6.764932C 66.29079 2.716647 66.23762 26.95313 66.18443 26.89988Z" fill="" />
</svg>
