<?xml version="1.0" encoding="UTF-8"?>
<svg version="1.1" xmlns="http://www.w3.org/2000/svg" xmlns:xlink="http://www.w3.org/1999/xlink" viewBox="48.830232480526 27.8930232114792 74.9999998807907 97.6744184494019">
<path d="M 94.18186 108.1256L 69.76305 108.1256L 69.76305 87.19535L 94.18186 87.19535C 99.9586 87.19535 104.647 91.88372 104.647 97.66047C 104.647 103.4372 99.9586 108.1256 94.18186 108.1256ZM 69.76305 45.33524L 90.69349 45.33524C 96.47023 45.33524 101.1586 50.02354 101.1586 55.80035C 101.1586 61.57709 96.47023 66.26546 90.69349 66.26546L 69.76305 66.26546M 108.833 75.25117C 115.5726 70.54953 120.3446 62.92353 120.3446 55.80035C 120.3446 40.06772 108.1702 27.89337 92.43768 27.89337L 48.83281 27.89337L 48.83281 125.5674L 97.96326 125.5674C 112.5726 125.5674 123.833 113.7209 123.833 99.11233C 123.833 88.53488 117.8121 79.47977 108.833 75.25117Z" fill="" />
</svg>
