<?xml version="1.0" encoding="UTF-8"?>
<svg version="1.1" xmlns="http://www.w3.org/2000/svg" xmlns:xlink="http://www.w3.org/1999/xlink" viewBox="7.49996498110145 18.3749273872822 75.0000013732463 52.8750475501344">
<path d="M 29.99995 26.25001H 78.74994C 80.99994 26.25001 82.49996 24.74998 82.49996 22.49998S 80.99994 18.74996 78.74994 18.74996H 29.99995C 27.74995 18.74996 26.24992 20.24998 26.24992 22.49998S 27.74995 26.25001 29.99995 26.25001Z" />
<path d="M 78.74994 41.24994H 29.99995C 27.74995 41.24994 26.24992 42.74997 26.24992 44.99997S 27.74995 48.74999 29.99995 48.74999H 78.74994C 80.99994 48.74999 82.49996 47.24996 82.49996 44.99997S 80.99994 41.24994 78.74994 41.24994Z" />
<path d="M 78.74994 63.74992H 29.99995C 27.74995 63.74992 26.24992 65.24995 26.24992 67.49995S 27.74995 71.24998 29.99995 71.24998H 78.74994C 80.99994 71.24998 82.49996 69.74995 82.49996 67.49995S 80.99994 63.74992 78.74994 63.74992Z" />
<path d="M 8.624965 19.87495C 7.874995 20.62493 7.499965 21.37498 7.499965 22.49998S 7.874994 24.37495 8.624965 25.12501C 9.374934 25.87498 10.12499 26.25001 11.24999 26.25001S 13.12496 25.87498 13.87502 25.12501C 14.62499 24.37504 15.00002 23.62498 15.00002 22.49998S 14.62499 20.62501 13.87502 19.87495C 12.37499 18.37493 10.12499 18.37493 8.625052 19.87495Z" />
<path d="M 8.624965 42.37494C 7.874995 43.12491 7.499965 43.87497 7.499965 44.99997S 7.874994 46.87494 8.624965 47.62499C 9.374934 48.37497 10.12499 48.74999 11.24999 48.74999S 13.12496 48.37496 13.87502 47.62499C 14.62499 46.87502 15.00002 46.12496 15.00002 44.99997S 14.62499 43.125 13.87502 42.37494C 12.37499 40.87491 10.12499 40.87491 8.625052 42.37494Z" />
<path d="M 8.624965 64.87492C 7.874995 65.62489 7.499965 66.37495 7.499965 67.49995S 7.874994 69.37492 8.624965 70.12498C 9.374934 70.87495 10.12499 71.24998 11.24999 71.24998S 13.12496 70.87494 13.87502 70.12498C 14.62499 69.37501 15.00002 68.62495 15.00002 67.49995S 14.62499 65.62498 13.87502 64.87492C 12.37499 63.37489 10.12499 63.37489 8.625052 64.87492Z" />
</svg>
